:SAMPLES-PER-SECOND 30
:FULLY-SPECIFIED
:DEGREES
147
root  4.697444495 36.79133438 9.550755418 3.603027344 -4.410003662 -4.666992188
lowerback  12.54759979 5.600659847 -1.858590007
upperback  3.287830114 6.853929996 -7.369810104
thorax  -2.817770004 3.431829929 -7.747739792
lowerneck  0.2313529998 -0.03488750011 -12.37080002
upperneck  8.24971962 -0.9085549712 16.54249954
head  2.454060078 -0.3380950093 7.161540031
lclavicle  0 -9.442270133e-015 7.951389973e-016
lhumerus  13.63570023 -45.73960114 71.02159882
lradius  7.37959775e-032 -3.453152097e-031 102.0630035
lwrist  -7.062250077e-031 -1.765562519e-031 10.73840046
lhand  -1.496451383e-031 -27.76390076 20.11240005
lfingers  90 7.125020027 -90
lthumb  89.89689403 5.08795885 91.16245106
rclavicle  0 -9.442270133e-015 7.951389973e-016
rhumerus  38.1814003 -7.107950211 -28.08950043
rradius  9.723973797e-032 3.394596791e-031 74.01540375
rwrist  1.412450015e-030 -0 -7.450960159
rhand  -7.920061211e-032 -33.2840004 9.303460121
rfingers  -90 -7.125020027 -90
rthumb  -92.93752616 -24.25625642 -97.11982154
rfemur  6.751780033 1.725469947 23.42889977
rtibia  -0 0 49.95410156
rfoot  -0 -22.19309998 -17.57589912
rtoes  5.373923086 19.29304026 -105.8922705
lfemur  -54.60400009 -13.15610027 5.93253994
ltibia  -0 0 57.15439987
lfoot  -0 5.667300224 -13.44299984
ltoes  -4.250644065 -19.5611806 -102.515957
148
root  4.610444617 36.72888748 9.6307334 3.757019043 -3.544006348 -4.366027832
lowerback  12.32530022 6.22454977 -2.268300056
upperback  3.303270102 7.652040005 -7.246230125
thorax  -2.658289909 3.833590031 -7.461229801
lowerneck  1.376659989 -0.5468329787 -11.9982996
upperneck  8.050060272 -1.703920007 16.69540024
head  2.318490028 -0.7659310102 7.130030155
lclavicle  0 -9.442270133e-015 7.951389973e-016
lhumerus  12.27050018 -45.87609863 72.55349731
lradius  7.682460925e-032 -3.446540581e-031 102.5660019
lwrist  -7.062250077e-031 -0 10.61989975
lhand  -1.496451383e-031 -27.76390076 20.11240005
lfingers  90 7.125020027 -90
lthumb  89.89689403 5.08795885 91.16245106
rclavicle  0 -9.442270133e-015 7.951389973e-016
rhumerus  42.25180054 -7.742740154 -26.32530022
rradius  1.568577309e-031 3.163607002e-031 63.62689972
rwrist  7.062250077e-031 -1.765562519e-031 -7.732649803
rhand  -7.920061211e-032 -33.2840004 9.303460121
rfingers  -90 -7.125020027 -90
rthumb  -92.93752616 -24.25625642 -97.11982154
rfemur  6.882279873 0.4795359969 23.37789917
rtibia  -0 0 49.47660065
rfoot  -0 -23.7201004 -19.19339943
rtoes  5.373923086 19.29304026 -105.8922705
lfemur  -55.24380112 -13.63650036 5.672410011
ltibia  -0 0 57.54589844
lfoot  -0 5.11259985 -13.44330025
ltoes  -4.250644065 -19.5611806 -102.515957
149
root  4.513199874 36.65644428 9.699533117 4.034973145 -2.255996704 -4.20300293
lowerback  11.94309998 6.669789791 -2.586879969
upperback  3.351020098 8.245030403 -7.037640095
thorax  -2.413209915 4.133669853 -7.080780029
lowerneck  2.587980032 -1.047850013 -11.71409988
upperneck  7.675670147 -2.467969894 17.02939987
head  2.117010117 -1.185009956 7.178880215
lclavicle  0 -9.442270133e-015 7.951389973e-016
lhumerus  11.36750031 -46.05559921 73.75689697
lradius  7.981131941e-032 -3.439746992e-031 103.0630035
lwrist  -7.062250077e-031 -1.765562519e-031 10.53960037
lhand  -1.496451383e-031 -27.76390076 20.11240005
lfingers  90 7.125020027 -90
lthumb  89.89689403 5.08795885 91.16245106
rclavicle  0 -9.442270133e-015 7.951389973e-016
rhumerus  45.88130188 -8.469039917 -24.9375
rradius  2.100968299e-031 2.83809377e-031 53.48839951
rwrist  7.062250077e-031 -0 -7.589739799
rhand  -7.920061211e-032 -33.2840004 9.303460121
rfingers  -90 -7.125020027 -90
rthumb  -92.93752616 -24.25625642 -97.11982154
rfemur  6.852459908 -1.031980038 23.5965004
rtibia  -0 0 49.04090118
rfoot  -0 -25.06459999 -21.19529915
rtoes  5.373923086 19.29304026 -105.8922705
lfemur  -56.18610001 -14.12390041 5.529439926
ltibia  -0 0 57.92470169
lfoot  -0 4.512889862 -13.65639973
ltoes  -4.250644065 -19.5611806 -102.515957
150
root  4.420488838 36.57288739 9.786466914 4.208007813 -0.7649993896 -3.984008789
lowerback  11.51509953 6.956389904 -2.991750002
upperback  3.621439934 8.640000343 -6.775159836
thorax  -1.959010005 4.336629868 -6.544129848
lowerneck  3.048039913 -1.567909956 -11.46759987
upperneck  7.494880199 -3.20630002 17.33569908
head  2.096839905 -1.56013 7.22619009
lclavicle  0 -9.442270133e-015 7.951389973e-016
lhumerus  11.02350044 -46.10549927 74.6140976
lradius  8.348083024e-032 -3.43102596e-031 103.6750031
lwrist  -1.412450015e-030 1.765562519e-031 10.26430035
lhand  -1.496451383e-031 -27.76390076 20.11240005
lfingers  90 7.125020027 -90
lthumb  89.89689403 5.08795885 91.16245106
rclavicle  0 -9.442270133e-015 7.951389973e-016
rhumerus  49.44020081 -9.629019737 -24.26129913
rradius  2.537851609e-031 2.455229774e-031 44.05199814
rwrist  7.062250077e-031 -1.765562519e-031 -5.11383009
rhand  -7.920061211e-032 -33.2840004 9.303460121
rfingers  -90 -7.125020027 -90
rthumb  -92.93752616 -24.25625642 -97.11982154
rfemur  7.044939995 -2.571470022 23.75419998
rtibia  -0 0 48.5542984
rfoot  -0 -26.02140045 -22.69610023
rtoes  5.373923086 19.29304026 -105.8922705
lfemur  -57.0605011 -14.75720024 5.241429806
ltibia  -0 0 58.31510162
lfoot  -0 4.025000095 -13.64319992
ltoes  -4.250644065 -19.5611806 -102.515957
151
root  4.333000108 36.4742219 9.896089148 4.190002441 0.8560028076 -3.880004883
lowerback  11.27200031 7.107250214 -3.113339901
upperback  3.981100082 8.88092041 -6.585939884
thorax  -1.476999998 4.464360237 -6.239190102
lowerneck  3.001899958 -2.089930058 -11.11950016
upperneck  7.474370003 -3.929579973 17.75889969
head  2.207070112 -1.897850037 7.288750172
lclavicle  0 -9.442270133e-015 7.951389973e-016
lhumerus  11.13899994 -46.35229874 74.86830139
lradius  8.80363354e-032 -3.419620506e-031 104.4369965
lwrist  -1.412450015e-030 -3.531125038e-031 10.11100006
lhand  -1.496451383e-031 -27.76390076 20.11240005
lfingers  90 7.125020027 -90
lthumb  89.89689403 5.08795885 91.16245106
rclavicle  0 -9.442270133e-015 7.951389973e-016
rhumerus  52.57759857 -11.27029991 -25.54579926
rradius  2.85930992e-031 2.072001646e-031 35.92900085
rwrist  7.062250077e-031 -3.531125038e-031 -0.4025290012
rhand  -7.920061211e-032 -33.2840004 9.303460121
rfingers  -90 -7.125020027 -90
rthumb  -92.93752616 -24.25625642 -97.11982154
rfemur  7.606319904 -4.040830135 24.02709961
rtibia  -0 0 47.98220062
rfoot  -0 -26.96730042 -23.50860023
rtoes  5.373923086 19.29304026 -105.8922705
lfemur  -57.69409943 -15.41180038 4.875380039
ltibia  -0 0 58.70640182
lfoot  -0 3.529439926 -13.4612999
ltoes  -4.250644065 -19.5611806 -102.515957
152
root  4.237244448 36.38533344 10.02013364 4.085998535 2.352996826 -4.049987793
lowerback  11.27560043 7.282869816 -2.954090118
upperback  4.151579857 9.151350021 -6.449039936
thorax  -1.27541995 4.605529785 -6.196360111
lowerneck  3.348510027 -2.515300035 -10.77960014
upperneck  7.201720238 -4.533299923 18.47850037
head  2.164849997 -2.195739985 7.455860138
lclavicle  0 -9.442270133e-015 7.951389973e-016
lhumerus  11.16479969 -46.95959854 74.92220306
lradius  9.326011198e-032 -3.405745027e-031 105.314003
lwrist  -7.062250077e-031 -1.765562519e-031 10.09070015
lhand  -1.496451383e-031 -27.76390076 20.11240005
lfingers  90 7.125020027 -90
lthumb  89.89689403 5.08795885 91.16245106
rclavicle  0 -9.442270133e-015 7.951389973e-016
rhumerus  55.12170029 -13.44250011 -28.82029915
rradius  3.063140286e-031 1.756705901e-031 29.83419991
rwrist  1.059337512e-030 -3.531125038e-031 5.336800098
rhand  -7.920061211e-032 -33.2840004 9.303460121
rfingers  -90 -7.125020027 -90
rthumb  -92.93752616 -24.25625642 -97.11982154
rfemur  8.314749718 -5.184100151 24.6303997
rtibia  -0 0 47.31219864
rfoot  -0 -27.72120094 -24.21570015
rtoes  5.373923086 19.29304026 -105.8922705
lfemur  -58.10979843 -15.72220039 4.619150162
ltibia  -0 0 59.06349945
lfoot  -0 2.826479912 -13.51690006
ltoes  -4.250644065 -19.5611806 -102.515957
